<svg width="119" height="28" viewBox="0 0 119 28" fill="none" xmlns="http://www.w3.org/2000/svg">
<path d="M9.125 16.4805C9.125 15.8242 9.34766 15.2734 9.79297 14.8281C10.2617 14.3594 10.8242 14.125 11.4805 14.125H16.8594L15.9453 11.5234C15.5703 10.5625 15.1953 9.66016 14.8203 8.81641C14.4688 7.94922 14.0586 7.16406 13.5898 6.46094C13.168 5.75781 12.6875 5.38281 12.1484 5.33594C11.5859 5.38281 11.082 5.75781 10.6367 6.46094C10.1914 7.16406 9.78125 7.94922 9.40625 8.81641C9.05469 9.66016 8.69141 10.5625 8.31641 11.5234L4.97656 20.6641C4.74219 21.1562 4.4375 21.5664 4.0625 21.8945C3.71094 22.1992 3.17188 22.3516 2.44531 22.3516C1.76562 22.3516 1.20312 22.1172 0.757812 21.6484C0.335938 21.1797 0.148438 20.6172 0.195312 19.9609C0.21875 19.6562 0.289062 19.375 0.40625 19.1172L4.27344 9.13281C5.35156 6.50781 6.42969 4.38672 7.50781 2.76953C8.5625 1.17578 10.1094 0.367187 12.1484 0.34375C14.1641 0.367187 15.6992 1.17578 16.7539 2.76953C17.832 4.33984 18.9102 6.46094 19.9883 9.13281L23.8555 19.1172C23.9727 19.375 24.043 19.6562 24.0664 19.9609C24.1133 20.6172 23.9141 21.1797 23.4688 21.6484C23.0469 22.1172 22.4961 22.3516 21.8164 22.3516C21.043 22.3516 20.4688 22.1992 20.0938 21.8945C19.7422 21.5664 19.4492 21.1562 19.2148 20.6641L18.5469 18.8359H11.4805C10.8242 18.8359 10.2734 18.6016 9.82812 18.1328C9.35938 17.6875 9.125 17.1367 9.125 16.4805ZM51.0453 24.9883V11.5938C51.0453 11.0078 50.7406 10.7031 50.1313 10.6797H37.8266C37.3813 10.7031 36.9945 10.9023 36.6664 11.2773C36.3383 11.6289 36.0922 12.0508 35.9281 12.543C35.7875 13.0117 35.7172 13.4922 35.7172 13.9844C35.7172 14.4531 35.7875 14.9336 35.9281 15.4258C36.0922 15.8945 36.3383 16.3164 36.6664 16.6914C36.9945 17.043 37.3813 17.2188 37.8266 17.2188H46.8266C47.4828 17.2188 48.0336 17.4531 48.4789 17.9219C48.9477 18.3672 49.182 18.918 49.182 19.5742C49.182 20.2305 48.9477 20.7812 48.4789 21.2266C48.0336 21.6953 47.4828 21.9297 46.8266 21.9297H37.9672C36.3266 21.9062 34.9672 21.4492 33.8891 20.5586C32.8344 19.6445 32.0727 18.625 31.6039 17.5C31.1586 16.3516 30.9359 15.168 30.9359 13.9492C30.9359 12.7773 31.1703 11.6289 31.6391 10.5039C32.1078 9.35547 32.8695 8.33594 33.9242 7.44531C34.9789 6.53125 36.5375 6.03906 38.6 5.96875H53.3656C54.0219 5.96875 54.5844 6.19141 55.0531 6.63672C55.5219 7.05859 55.768 7.59766 55.7914 8.25391V24.9883C55.7914 25.6445 55.5453 26.1836 55.0531 26.6055C54.5844 27.0508 54.0219 27.2734 53.3656 27.2734C51.9594 27.1562 51.1859 26.3945 51.0453 24.9883ZM75.2117 22.5273C73.993 22.5273 72.7859 22.3867 71.5906 22.1055C70.4188 21.8242 69.2938 21.4141 68.2156 20.875C67.1375 20.3125 66.1883 19.5742 65.368 18.6602C64.5477 17.7461 64.1023 16.6562 64.032 15.3906V13.9141V7.90234C64.032 7.24609 64.2664 6.70703 64.7352 6.28516C65.2273 5.83984 65.8016 5.61719 66.4578 5.61719C67.8641 5.73438 68.6258 6.49609 68.743 7.90234V9.44922V14.3008C68.7898 15.0273 69.0594 15.6367 69.5516 16.1289C70.0672 16.5977 70.6297 16.9727 71.2391 17.2539C71.8719 17.5352 72.5164 17.7461 73.1727 17.8867C73.8523 18.0273 74.532 18.0977 75.2117 18.0977C75.8914 18.0977 76.5594 18.0273 77.2156 17.8867C77.8953 17.7461 78.5398 17.5352 79.1492 17.2539C79.782 16.9727 80.3445 16.5977 80.8367 16.1289C81.3523 15.6367 81.6336 15.0273 81.6805 14.3008V9.44922V7.90234C81.6805 7.24609 81.9148 6.70703 82.3836 6.28516C82.8758 5.83984 83.45 5.61719 84.1063 5.61719C85.5125 5.73438 86.2859 6.49609 86.4266 7.90234V13.9141V15.3906C86.3563 16.6562 85.8992 17.7461 85.0555 18.6602C84.2352 19.5742 83.2859 20.3125 82.2078 20.875C81.1297 21.4141 79.993 21.8242 78.7977 22.1055C77.6258 22.3867 76.4305 22.5273 75.2117 22.5273ZM114.179 20.0664V11.5938C114.179 11.0078 113.874 10.7031 113.265 10.6797H100.96C100.515 10.7031 100.128 10.9023 99.8 11.2773C99.4719 11.6289 99.2258 12.0508 99.0617 12.543C98.9211 13.0117 98.8508 13.4922 98.8508 13.9844C98.8508 14.4531 98.9211 14.9336 99.0617 15.4258C99.2258 15.8945 99.4719 16.3164 99.8 16.6914C100.128 17.043 100.515 17.2188 100.96 17.2188H109.96C110.616 17.2188 111.167 17.4531 111.613 17.9219C112.081 18.3672 112.316 18.918 112.316 19.5742C112.316 20.2305 112.081 20.7812 111.613 21.2266C111.167 21.6953 110.616 21.9297 109.96 21.9297H101.101C99.4602 21.9062 98.1008 21.4492 97.0227 20.5586C95.968 19.6445 95.2063 18.625 94.7375 17.5C94.2922 16.3516 94.0695 15.168 94.0695 13.9492C94.0695 12.7773 94.3039 11.6289 94.7727 10.5039C95.2414 9.35547 96.0031 8.33594 97.0578 7.44531C98.1125 6.53125 99.6711 6.03906 101.734 5.96875H116.499C117.155 5.96875 117.718 6.19141 118.187 6.63672C118.655 7.05859 118.902 7.59766 118.925 8.25391V20.0664C118.925 20.7227 118.679 21.2734 118.187 21.7188C117.718 22.1406 117.155 22.3516 116.499 22.3516C115.093 22.2344 114.32 21.4727 114.179 20.0664Z" fill="white"/>
</svg>
