<svg width="24" height="24" viewBox="0 0 24 24" fill="none" xmlns="http://www.w3.org/2000/svg">
<path fill-rule="evenodd" clip-rule="evenodd" d="M2.81235 6.99694C3.6684 5.9792 5.13607 5.48169 7.28538 5.48169H16.9537C19.1031 5.48169 20.5707 5.9792 21.4268 6.99694C22.2745 8.00481 22.3552 9.32889 22.2193 10.5635L21.4938 18.3019C21.3873 19.2958 21.1378 20.3856 20.2503 21.1964C19.3694 22.0012 18.0046 22.4013 15.9869 22.4013H8.25222C6.23457 22.4013 4.86977 22.0012 3.98884 21.1964C3.10135 20.3856 2.85187 19.2958 2.74538 18.3018L2.74435 18.2923L2.01984 10.5635C1.88397 9.3289 1.96461 8.00481 2.81235 6.99694ZM3.9222 7.93047C3.46612 8.4727 3.33774 9.28744 3.46198 10.4102L3.46331 10.4222L4.18788 18.152C4.28461 19.0506 4.48486 19.6852 4.96702 20.1257C5.45658 20.5729 6.38318 20.9511 8.25222 20.9511H15.9869C17.856 20.9511 18.7825 20.5729 19.2721 20.1257C19.7543 19.6852 19.9545 19.0506 20.0512 18.152L20.7771 10.4101C20.9013 9.28743 20.773 8.4727 20.3169 7.93047C19.8677 7.39644 18.9328 6.93194 16.9537 6.93194H7.28538C5.3063 6.93194 4.37138 7.39644 3.9222 7.93047Z" fill="#F1F1F1"/>
<path fill-rule="evenodd" clip-rule="evenodd" d="M9.0196 4.32176C8.97852 4.63636 8.97736 4.99388 8.97736 5.43326V6.20673C8.97736 6.60721 8.65271 6.93186 8.25223 6.93186C7.85175 6.93186 7.5271 6.60721 7.5271 6.20673L7.5271 5.40813C7.52708 4.99865 7.52705 4.5514 7.58155 4.13401C7.63801 3.70155 7.759 3.24242 8.04244 2.83231C8.63873 1.96956 9.73101 1.61426 11.3461 1.61426H12.893C14.5081 1.61426 15.6004 1.96956 16.1967 2.83231C16.4802 3.24242 16.6011 3.70155 16.6576 4.13401C16.7121 4.5514 16.7121 4.99866 16.7121 5.40814L16.7121 6.20673C16.7121 6.60721 16.3874 6.93186 15.9869 6.93186C15.5864 6.93186 15.2618 6.60721 15.2618 6.20673V5.43326C15.2618 4.99388 15.2606 4.63636 15.2196 4.32176C15.1793 4.01369 15.107 3.80631 15.0037 3.65687C14.8265 3.4005 14.3718 3.06451 12.893 3.06451H11.3461C9.86732 3.06451 9.41267 3.4005 9.23548 3.65687C9.13219 3.80631 9.05982 4.01369 9.0196 4.32176Z" fill="#F1F1F1"/>
<path fill-rule="evenodd" clip-rule="evenodd" d="M10.9117 12.7337C10.911 12.8028 10.911 12.8814 10.911 12.9747V13.9705C10.911 14.2427 10.9133 14.4429 10.937 14.6128C10.9597 14.7761 10.9958 14.8556 11.0264 14.8988C11.0605 14.9469 11.2306 15.1501 12.1195 15.1501C13.0125 15.1501 13.1805 14.9449 13.2139 14.8973C13.2447 14.8533 13.2807 14.7726 13.303 14.6073C13.3263 14.4355 13.3281 14.2344 13.3281 13.9609V12.9747C13.3281 12.8814 13.328 12.8028 13.3273 12.7337C13.2583 12.733 13.1796 12.733 13.0863 12.733H11.1527C11.0594 12.733 10.9807 12.733 10.9117 12.7337ZM11.1209 11.2827C11.1315 11.2827 11.1421 11.2827 11.1527 11.2827H13.0863C13.0969 11.2827 13.1075 11.2827 13.1181 11.2827C13.3319 11.2827 13.5486 11.2826 13.7254 11.3023C13.9056 11.3223 14.2049 11.3758 14.4451 11.616C14.6852 11.8561 14.7387 12.1554 14.7588 12.3357C14.7784 12.5125 14.7784 12.7291 14.7783 12.9429C14.7783 12.9535 14.7783 12.9641 14.7783 12.9747V13.9717C14.7783 14.2228 14.7783 14.5199 14.7402 14.8018C14.7006 15.0943 14.6139 15.4263 14.4018 15.7292C13.9494 16.3752 13.1505 16.6003 12.1195 16.6003C11.0941 16.6003 10.2973 16.3781 9.84319 15.7374C9.62966 15.4361 9.54128 15.1053 9.50056 14.8127C9.46075 14.5266 9.4607 14.2253 9.4607 13.9705V12.9747C9.4607 12.9641 9.4607 12.9535 9.4607 12.9429C9.46065 12.7291 9.4606 12.5125 9.48024 12.3357C9.50027 12.1554 9.55381 11.8561 9.79394 11.616C10.0341 11.3758 10.3334 11.3223 10.5136 11.3023C10.6904 11.2826 10.9071 11.2827 11.1209 11.2827Z" fill="#F1F1F1"/>
<path fill-rule="evenodd" clip-rule="evenodd" d="M22.0361 10.6144C22.2716 10.9382 22.2 11.3917 21.8761 11.6273C19.5401 13.3262 16.8712 14.3367 14.1439 14.6801C13.7466 14.7302 13.3839 14.4486 13.3339 14.0513C13.2838 13.654 13.5654 13.2913 13.9627 13.2413C16.4564 12.9272 18.8924 12.0041 21.0231 10.4544C21.347 10.2189 21.8005 10.2905 22.0361 10.6144Z" fill="#F1F1F1"/>
<path fill-rule="evenodd" clip-rule="evenodd" d="M2.45225 10.8923C2.67844 10.5618 3.12972 10.4773 3.4602 10.7035C5.53783 12.1255 7.88071 12.9826 10.2666 13.2497C10.6646 13.2943 10.9511 13.653 10.9065 14.051C10.862 14.449 10.5032 14.7355 10.1052 14.6909C7.48286 14.3973 4.91421 13.4561 2.64107 11.9002C2.31059 11.674 2.22605 11.2228 2.45225 10.8923Z" fill="#F1F1F1"/>
</svg>
