<svg width="24" height="25" viewBox="0 0 24 25" fill="none" xmlns="http://www.w3.org/2000/svg">
<path fill-rule="evenodd" clip-rule="evenodd" d="M13.3268 20.2665C13.3268 19.599 12.7858 19.0579 12.1183 19.0579C11.4508 19.0579 10.9098 19.599 10.9098 20.2665C10.9098 20.9339 11.4508 21.475 12.1183 21.475C12.7858 21.475 13.3268 20.9339 13.3268 20.2665ZM12.1183 17.6077C13.5867 17.6077 14.7771 18.7981 14.7771 20.2665C14.7771 21.7349 13.5867 22.9253 12.1183 22.9253C10.6499 22.9253 9.4595 21.7349 9.4595 20.2665C9.4595 18.7981 10.6499 17.6077 12.1183 17.6077Z" fill="#F1F1F1"/>
<path fill-rule="evenodd" clip-rule="evenodd" d="M21.0615 20.2665C21.0615 19.599 20.5204 19.0579 19.8529 19.0579C19.1855 19.0579 18.6444 19.599 18.6444 20.2665C18.6444 20.9339 19.1855 21.475 19.8529 21.475C20.5204 21.475 21.0615 20.9339 21.0615 20.2665ZM19.8529 17.6077C21.3213 17.6077 22.5117 18.7981 22.5117 20.2665C22.5117 21.7349 21.3213 22.9253 19.8529 22.9253C18.3845 22.9253 17.1941 21.7349 17.1941 20.2665C17.1941 18.7981 18.3845 17.6077 19.8529 17.6077Z" fill="#F1F1F1"/>
<path fill-rule="evenodd" clip-rule="evenodd" d="M5.59223 20.2665C5.59223 19.599 5.05114 19.0579 4.38368 19.0579C3.71622 19.0579 3.17513 19.599 3.17513 20.2665C3.17513 20.9339 3.71622 21.475 4.38368 21.475C5.05114 21.475 5.59223 20.9339 5.59223 20.2665ZM4.38368 17.6077C5.85209 17.6077 7.04248 18.7981 7.04248 20.2665C7.04248 21.7349 5.85209 22.9253 4.38368 22.9253C2.91526 22.9253 1.72488 21.7349 1.72488 20.2665C1.72488 18.7981 2.91526 17.6077 4.38368 17.6077Z" fill="#F1F1F1"/>
<path fill-rule="evenodd" clip-rule="evenodd" d="M13.3268 4.79698C13.3268 4.12952 12.7858 3.58844 12.1183 3.58844C11.4508 3.58844 10.9098 4.12952 10.9098 4.79698C10.9098 5.46445 11.4508 6.00553 12.1183 6.00553C12.7858 6.00553 13.3268 5.46445 13.3268 4.79698ZM12.1183 2.13818C13.5867 2.13818 14.7771 3.32857 14.7771 4.79698C14.7771 6.2654 13.5867 7.45579 12.1183 7.45579C10.6499 7.45579 9.4595 6.2654 9.4595 4.79698C9.4595 3.32857 10.6499 2.13818 12.1183 2.13818Z" fill="#F1F1F1"/>
<path fill-rule="evenodd" clip-rule="evenodd" d="M12.1184 6.00562C12.5189 6.00562 12.8435 6.33027 12.8435 6.73074L12.8435 18.3328C12.8435 18.7333 12.5189 19.0579 12.1184 19.0579C11.7179 19.0579 11.3933 18.7333 11.3933 18.3328L11.3933 6.73074C11.3933 6.33027 11.7179 6.00562 12.1184 6.00562Z" fill="#F1F1F1"/>
<path fill-rule="evenodd" clip-rule="evenodd" d="M19.6406 11.7771C20.308 12.4445 20.5781 13.3866 20.5781 14.4652L20.5781 18.3326C20.5781 18.7331 20.2535 19.0577 19.853 19.0577C19.4525 19.0577 19.1279 18.7331 19.1279 18.3326L19.1279 14.4652C19.1279 13.6102 18.9146 13.1021 18.6151 12.8026C18.3157 12.5031 17.8075 12.2899 16.9525 12.2899L7.28412 12.2899C6.42906 12.2899 5.92095 12.5031 5.62148 12.8026C5.32201 13.1021 5.10874 13.6102 5.10874 14.4652L5.10874 18.3326C5.10874 18.7331 4.78409 19.0577 4.38361 19.0577C3.98313 19.0577 3.65848 18.7331 3.65848 18.3326L3.65848 14.4652C3.65848 13.3866 3.92863 12.4445 4.59599 11.7771C5.26336 11.1097 6.20551 10.8396 7.28412 10.8396L16.9525 10.8396C18.0311 10.8396 18.9732 11.1097 19.6406 11.7771Z" fill="#F1F1F1"/>
</svg>
