<svg width="24" height="24" viewBox="0 0 24 24" fill="none" xmlns="http://www.w3.org/2000/svg">
<path fill-rule="evenodd" clip-rule="evenodd" d="M10.4275 19.4336C10.4275 19.0331 10.7521 18.7085 11.1526 18.7085H20.821C21.2215 18.7085 21.5461 19.0331 21.5461 19.4336C21.5461 19.8341 21.2215 20.1588 20.821 20.1588H11.1526C10.7521 20.1588 10.4275 19.8341 10.4275 19.4336Z" fill="#F1F1F1"/>
<path fill-rule="evenodd" clip-rule="evenodd" d="M10.4275 12.6656C10.4275 12.2651 10.7521 11.9404 11.1526 11.9404H20.821C21.2215 11.9404 21.5461 12.2651 21.5461 12.6656C21.5461 13.066 21.2215 13.3907 20.821 13.3907H11.1526C10.7521 13.3907 10.4275 13.066 10.4275 12.6656Z" fill="#F1F1F1"/>
<path fill-rule="evenodd" clip-rule="evenodd" d="M10.4275 5.89773C10.4275 5.49726 10.7521 5.17261 11.1526 5.17261H20.821C21.2215 5.17261 21.5461 5.49726 21.5461 5.89773C21.5461 6.29821 21.2215 6.62286 20.821 6.62286H11.1526C10.7521 6.62286 10.4275 6.29821 10.4275 5.89773Z" fill="#F1F1F1"/>
<path fill-rule="evenodd" clip-rule="evenodd" d="M7.79809 3.4514C8.08127 3.73458 8.08127 4.1937 7.79809 4.47688L4.89758 7.37739C4.6144 7.66057 4.15527 7.66057 3.87209 7.37739L2.90526 6.41056C2.62208 6.12738 2.62208 5.66825 2.90526 5.38507C3.18844 5.10189 3.64756 5.10189 3.93074 5.38507L4.38484 5.83917L6.7726 3.4514C7.05578 3.16822 7.51491 3.16822 7.79809 3.4514Z" fill="#F1F1F1"/>
<path fill-rule="evenodd" clip-rule="evenodd" d="M7.79809 10.2192C8.08127 10.5024 8.08127 10.9615 7.79809 11.2447L4.89758 14.1452C4.6144 14.4284 4.15527 14.4284 3.87209 14.1452L2.90526 13.1784C2.62208 12.8952 2.62208 12.4361 2.90526 12.1529C3.18844 11.8697 3.64756 11.8697 3.93074 12.1529L4.38484 12.607L6.7726 10.2192C7.05578 9.93604 7.51491 9.93604 7.79809 10.2192Z" fill="#F1F1F1"/>
<path fill-rule="evenodd" clip-rule="evenodd" d="M7.79809 16.987C8.08127 17.2702 8.08127 17.7293 7.79809 18.0125L4.89758 20.913C4.6144 21.1962 4.15527 21.1962 3.87209 20.913L2.90526 19.9462C2.62208 19.663 2.62208 19.2039 2.90526 18.9207C3.18844 18.6375 3.64756 18.6375 3.93074 18.9207L4.38484 19.3748L6.7726 16.987C7.05578 16.7039 7.51491 16.7039 7.79809 16.987Z" fill="#F1F1F1"/>
</svg>
