<svg width="24" height="24" viewBox="0 0 24 24" fill="none" xmlns="http://www.w3.org/2000/svg">
<path fill-rule="evenodd" clip-rule="evenodd" d="M11.9164 3.6087C11.5568 3.6087 11.2372 3.67159 11.0332 3.76293L11.0312 3.76384L5.32524 6.29766C4.57628 6.62809 4.52496 6.92703 4.52496 6.95879C4.52496 6.99055 4.57628 7.2895 5.32524 7.61993L5.32685 7.62063L11.0332 10.1547C11.2372 10.246 11.5568 10.3089 11.9164 10.3089C12.2761 10.3089 12.5956 10.246 12.7996 10.1547L12.8017 10.1537L18.506 7.62064L18.5076 7.61993C19.2566 7.2895 19.3079 6.99055 19.3079 6.95879C19.3079 6.92703 19.2566 6.62808 18.5076 6.29766L12.8017 3.76384L12.7996 3.76293C12.5956 3.67159 12.2761 3.6087 11.9164 3.6087ZM13.3912 2.43882C12.9476 2.24046 12.412 2.15845 11.9164 2.15845C11.4208 2.15845 10.8852 2.24046 10.4416 2.43882C10.4413 2.43898 10.4409 2.43914 10.4406 2.4393L4.73986 4.97079C4.73961 4.97091 4.74012 4.97068 4.73986 4.97079C3.84553 5.36553 3.07471 6.02881 3.07471 6.95879C3.07471 7.88874 3.84471 8.55166 4.739 8.94641C4.73871 8.94628 4.73929 8.94654 4.739 8.94641L10.4406 11.4783C10.441 11.4785 10.4414 11.4787 10.4418 11.4788C10.8853 11.6771 11.4209 11.7591 11.9164 11.7591C12.412 11.7591 12.9476 11.6771 13.3911 11.4788C13.3915 11.4786 13.3919 11.4785 13.3923 11.4783L19.093 8.94679C19.0927 8.9469 19.0933 8.94668 19.093 8.94679C19.9873 8.55205 20.7582 7.88877 20.7582 6.95879C20.7582 6.02878 19.988 5.36583 19.0937 4.97109C19.0934 4.97099 19.0939 4.97119 19.0937 4.97109L13.3923 2.4393C13.3919 2.43914 13.3916 2.43898 13.3912 2.43882Z" fill="#F1F1F1"/>
<path fill-rule="evenodd" clip-rule="evenodd" d="M3.418 10.188C3.81848 10.188 4.14313 10.5126 4.14313 10.9131C4.14313 11.1484 4.23622 11.4506 4.42341 11.7383C4.6106 12.026 4.84898 12.2333 5.06447 12.3285L5.06625 12.3293L11.6297 15.2485C11.6295 15.2484 11.6299 15.2486 11.6297 15.2485C11.9473 15.3887 12.3031 15.3866 12.6046 15.2506L12.608 15.2491L19.1728 12.3293L19.1746 12.3285C19.3901 12.2333 19.6285 12.026 19.8156 11.7383C20.0028 11.4506 20.0959 11.1484 20.0959 10.9131C20.0959 10.5126 20.4206 10.188 20.8211 10.188C21.2215 10.188 21.5462 10.5126 21.5462 10.9131C21.5462 11.4899 21.3347 12.0628 21.0313 12.5292C20.7279 12.9954 20.2898 13.4211 19.7612 13.6548C19.7609 13.6549 19.7615 13.6547 19.7612 13.6548L13.2008 16.5727C13.2001 16.573 13.1995 16.5733 13.1988 16.5735C12.5149 16.8813 11.7302 16.8787 11.0431 16.5748L4.47867 13.6552C4.47834 13.655 4.47801 13.6549 4.47768 13.6547C3.94915 13.421 3.5111 12.9954 3.20781 12.5292C2.90433 12.0628 2.69287 11.4899 2.69287 10.9131C2.69287 10.5126 3.01752 10.188 3.418 10.188Z" fill="#F1F1F1"/>
<path fill-rule="evenodd" clip-rule="evenodd" d="M3.418 15.0222C3.81848 15.0222 4.14313 15.3469 4.14313 15.7473C4.14313 16.3572 4.50371 16.9117 5.06697 17.1638C5.06679 17.1637 5.06715 17.1639 5.06697 17.1638L11.6297 20.0827C11.6295 20.0826 11.6299 20.0828 11.6297 20.0827C11.9473 20.223 12.3031 20.2208 12.6046 20.0849L12.608 20.0833L19.1715 17.1641C19.1713 17.1641 19.1717 17.164 19.1715 17.1641C19.7348 16.912 20.0959 16.3572 20.0959 15.7473C20.0959 15.3469 20.4206 15.0222 20.8211 15.0222C21.2215 15.0222 21.5462 15.3469 21.5462 15.7473C21.5462 16.9356 20.8435 18.0052 19.7634 18.488L19.7622 18.4886L13.2008 21.4069C13.2001 21.4072 13.1995 21.4075 13.1988 21.4078C12.5149 21.7156 11.7302 21.7129 11.0431 21.409L4.47562 18.488C3.39558 18.0052 2.69287 16.9356 2.69287 15.7473C2.69287 15.3469 3.01752 15.0222 3.418 15.0222Z" fill="#F1F1F1"/>
</svg>
