<svg width="24" height="24" viewBox="0 0 24 24" fill="none" xmlns="http://www.w3.org/2000/svg">
<path fill-rule="evenodd" clip-rule="evenodd" d="M12.1196 3.41339C7.18311 3.41339 3.17633 7.42017 3.17633 12.3566C3.17633 17.2931 7.18311 21.2999 12.1196 21.2999C17.056 21.2999 21.0628 17.2931 21.0628 12.3566C21.0628 7.42017 17.056 3.41339 12.1196 3.41339ZM1.72607 12.3566C1.72607 6.61921 6.38215 1.96313 12.1196 1.96313C17.857 1.96313 22.5131 6.61921 22.5131 12.3566C22.5131 18.094 17.857 22.7501 12.1196 22.7501C6.38215 22.7501 1.72607 18.094 1.72607 12.3566Z" fill="#F1F1F1"/>
<path fill-rule="evenodd" clip-rule="evenodd" d="M11.7617 7.29053C12.1622 7.29053 12.4869 7.61518 12.4869 8.01565V11.9797C12.4869 12.1281 12.5436 12.3433 12.6696 12.5643C12.7957 12.7854 12.9519 12.9436 13.0789 13.0188L13.0808 13.02L13.0808 13.02L16.078 14.8086C16.4219 15.0138 16.5343 15.459 16.3291 15.8029C16.1239 16.1468 15.6787 16.2592 15.3348 16.054L12.3396 14.2665C12.3392 14.2663 12.3389 14.2661 12.3386 14.2659C11.9439 14.0317 11.6268 13.6632 11.4098 13.2828C11.1926 12.9019 11.0366 12.4403 11.0366 11.9797V8.01565C11.0366 7.61518 11.3613 7.29053 11.7617 7.29053Z" fill="#F1F1F1"/>
</svg>
