<svg width="24" height="24" viewBox="0 0 24 24" fill="none" xmlns="http://www.w3.org/2000/svg">
<path fill-rule="evenodd" clip-rule="evenodd" d="M17.8336 2.76227C16.8515 2.76227 16.0643 3.54948 16.0643 4.53158C16.0643 5.47707 16.7915 6.23908 17.712 6.29878C17.7892 6.29193 17.8683 6.29193 17.9455 6.29878C18.8644 6.23913 19.5948 5.47811 19.6029 4.52899C19.6015 3.55591 18.813 2.76227 17.8336 2.76227ZM14.614 4.53158C14.614 2.74853 16.0505 1.31201 17.8336 1.31201C19.6185 1.31201 21.0531 2.76003 21.0531 4.53158V4.53676H21.0531C21.0407 6.27603 19.6716 7.68818 17.9468 7.75067C17.9074 7.7521 17.8679 7.75031 17.8287 7.74531C17.7896 7.75031 17.7501 7.7521 17.7106 7.75067C15.9868 7.68821 14.614 6.27578 14.614 4.53158Z" fill="#F1F1F1"/>
<path fill-rule="evenodd" clip-rule="evenodd" d="M16.7708 8.66112C18.2407 8.40362 19.9167 8.64911 21.1352 9.45762L21.1365 9.45848C21.9693 10.0137 22.4818 10.8182 22.4818 11.7151C22.4818 12.612 21.9693 13.4165 21.1365 13.9717C19.9271 14.7812 18.271 15.0258 16.8049 14.7796C16.4099 14.7133 16.1435 14.3394 16.2098 13.9445C16.2761 13.5495 16.65 13.2831 17.045 13.3494C18.2274 13.5479 19.4906 13.3287 20.3307 12.7659L20.332 12.7651C20.8624 12.4114 21.0316 12.0171 21.0316 11.7151C21.0316 11.4133 20.8626 11.0191 20.3327 10.6656C19.4821 10.1015 18.2 9.88309 17.021 10.0896C16.6266 10.1587 16.2508 9.89496 16.1817 9.50049C16.1125 9.10602 16.3763 8.73022 16.7708 8.66112Z" fill="#F1F1F1"/>
<path fill-rule="evenodd" clip-rule="evenodd" d="M3.15723 4.53158C3.15723 2.76003 4.59191 1.31201 6.37679 1.31201C8.15985 1.31201 9.59636 2.74853 9.59636 4.53158C9.59636 6.27578 8.2236 7.68821 6.49973 7.75067C6.46027 7.7521 6.42077 7.75031 6.38163 7.74531C6.34249 7.75031 6.30299 7.7521 6.26352 7.75067C4.53875 7.68818 3.16967 6.27603 3.15725 4.53676L3.15723 4.53158ZM4.60748 4.529C4.61558 5.47811 5.34593 6.23913 6.26488 6.29878C6.3421 6.29193 6.42117 6.29193 6.49838 6.29878C7.41891 6.23908 8.1461 5.47707 8.1461 4.53158C8.1461 3.54948 7.35889 2.76227 6.37679 2.76227C5.39739 2.76227 4.60888 3.55591 4.60748 4.529Z" fill="#F1F1F1"/>
<path fill-rule="evenodd" clip-rule="evenodd" d="M3.87765 10.6656C4.72823 10.1015 6.01035 9.88309 7.18929 10.0896C7.58376 10.1587 7.95956 9.89496 8.02866 9.50049C8.09777 9.10602 7.83401 8.73022 7.43954 8.66112C5.96964 8.40362 4.2936 8.64911 3.07515 9.45762L3.07515 9.45762L3.07384 9.45848C2.24103 10.0137 1.72852 10.8182 1.72852 11.7151C1.72852 12.6118 2.24076 13.4161 3.07319 13.9713C4.28267 14.7811 5.939 15.0258 7.40546 14.7796C7.80041 14.7133 8.06683 14.3394 8.00053 13.9445C7.93422 13.5495 7.5603 13.2831 7.16535 13.3494C5.98294 13.5479 4.71977 13.3287 3.87961 12.7659L3.8783 12.7651C3.34788 12.4114 3.17877 12.0171 3.17877 11.7151C3.17877 11.4133 3.34774 11.0191 3.87765 10.6656Z" fill="#F1F1F1"/>
<path fill-rule="evenodd" clip-rule="evenodd" d="M12.0323 9.98443C11.0502 9.98443 10.263 10.7716 10.263 11.7537C10.263 12.6992 10.9902 13.4612 11.9107 13.521C11.989 13.514 12.0692 13.5141 12.1475 13.5212C13.059 13.469 13.7935 12.7054 13.8016 11.7512C13.8002 10.7781 13.0117 9.98443 12.0323 9.98443ZM8.81274 11.7537C8.81274 9.9707 10.2493 8.53418 12.0323 8.53418C13.8172 8.53418 15.2519 9.98219 15.2519 11.7537V11.7589H15.2519C15.2395 13.4935 13.8739 14.9228 12.1403 14.973C12.1026 14.9741 12.0649 14.9723 12.0275 14.9675C11.9883 14.9725 11.9488 14.9743 11.9094 14.9728C10.1855 14.9104 8.81274 13.498 8.81274 11.7537Z" fill="#F1F1F1"/>
<path fill-rule="evenodd" clip-rule="evenodd" d="M12.123 15.8C13.2528 15.8 14.4215 16.0814 15.3351 16.6905C16.1679 17.2457 16.6805 18.0502 16.6805 18.9471C16.6805 19.8439 16.1681 20.6483 15.3355 21.2035C14.418 21.8169 13.2496 22.1014 12.1194 22.1014C10.9892 22.1014 9.82085 21.8169 8.90336 21.2035C8.07073 20.6483 7.55835 19.8439 7.55835 18.9471C7.55835 18.0502 8.07086 17.2457 8.90368 16.6905L8.90542 16.6893L8.90542 16.6893C9.82293 16.0815 10.9931 15.8 12.123 15.8ZM9.70728 17.8977C9.17753 18.2512 9.0086 18.6453 9.0086 18.9471C9.0086 19.2491 9.17771 19.6434 9.70814 19.997L9.709 19.9976C10.3384 20.4185 11.2098 20.6512 12.1194 20.6512C13.029 20.6512 13.9004 20.4185 14.5298 19.9976L14.5307 19.997C15.0611 19.6434 15.2302 19.2491 15.2302 18.9471C15.2302 18.6451 15.0611 18.2508 14.5307 17.8972C13.907 17.4814 13.0357 17.2503 12.123 17.2503C11.211 17.2503 10.3366 17.4811 9.70728 17.8977Z" fill="#F1F1F1"/>
</svg>
